{"title":"Its the Great Pumpkin Charlie Brown DVDRip XviD-G00Die","uid":5917619,"size":217539583,"categoryP":"video","categoryS":"movies","magnet":"?xt=urn:btih:e413c368ce6d5fe2dde24c02df4860ce49daa969&amp;dn=Its+the+Great+Pumpkin+Charlie+Brown+DVDRip+XviD-G00Die&amp;tr=udp%3A%2F%2Ftracker.openbittorrent.com%3A80&amp;tr=udp%3A%2F%2Fopen.demonii.com%3A1337&amp;tr=udp%3A%2F%2Ftracker.coppersurfer.tk%3A6969&amp;tr=udp%3A%2F%2Fexodus.desync.com%3A6969","seeders":12,"leechers":2,"uploader":"IwannaFan2","files":3,"time":1288288593,"description":"Filename:\nIts the Great Pumpkin Charlie Brown DVDRip XviD-G00Die\n &lt;a href=&quot;\nhttp://www.imdb.com/title/tt0060550/&quot; rel=&quot;nofollow&quot; target=&quot;_NEW&quot;&gt;\nhttp://www.imdb.com/title/tt0060550/&lt;/a&gt;\n\nIt's the Great Pumpkin, Charlie Brown is an animated television special, based on the\ncomic strip Peanuts by Charles M. Schulz.\n\nIt was the third Peanuts special (and first Halloween special) to be produced and\nanimated by Bill MelÃƒÂ©ndez. Its initial broadcast took place on October 27, 1966, on\nthe CBS network, preempting My Three Sons; CBS re-aired the special annually\nthrough 2000, with ABC picking up the rights beginning in 2001. The program was\nnominated for an Emmy award.\n\nDetails:\n\nFormat : AVI\nFormat/Info : Audio Video Interleave\nFile size : 201 MiB\nDuration : 24mn 9s\nOverall bit rate : 1 165 Kbps\n\nVideo\n\nFormat : MPEG-4 Visual\nFormat profile : Simple@L3\nFormat settings, BVOP : No\nFormat settings, QPel : No\nFormat settings, GMC : No warppoints\nFormat settings, Matrix : Default\nCodec ID : XVID\nCodec ID/Hint : XviD\nDuration : 24mn 9s\nBit rate : 1 024 Kbps\nWidth : 720 pixels\nHeight : 544 pixels\nDisplay aspect ratio : 4/3\nFrame rate : 25.000 fps\nResolution : 24 bits\nColorimetry : 4:2:0\nScan type : Progressive\nBits/(Pixel*Frame) : 0.105\nStream size : 177 MiB (88%)\nWriting library : XviD 1.1.2 (UTC 2006-11-01)\n\nAudio\n\nFormat : MPEG Audio\nFormat version : Version 1\nFormat profile : Layer 3\nCodec ID : 55\nCodec ID/Hint : MP3\nDuration : 24mn 9s\nBit rate mode : Constant\nBit rate : 128 Kbps\nChannel(s) : 2 channels\nSampling rate : 48.0 KHz\nResolution : 16 bits\nStream size : 22.1 MiB (11%)\nAlignment : Aligned on interleaves\nInterleave, duration : 24 ms (0.60 video frame) ","torrent":{"xt":"urn:btih:e413c368ce6d5fe2dde24c02df4860ce49daa969","amp;dn":"Its+the+Great+Pumpkin+Charlie+Brown+DVDRip+XviD-G00Die","amp;tr":["udp%3A%2F%2Ftracker.openbittorrent.com%3A80","udp%3A%2F%2Fopen.demonii.com%3A1337","udp%3A%2F%2Ftracker.coppersurfer.tk%3A6969","udp%3A%2F%2Fexodus.desync.com%3A6969"],"infoHash":"e413c368ce6d5fe2dde24c02df4860ce49daa969","infoHashBuffer":{"type":"Buffer","data":[228,19,195,104,206,109,95,226,221,226,76,2,223,72,96,206,73,218,169,105]},"announce":[],"urlList":[]}}